<svg xmlns="http://www.w3.org/2000/svg" viewBox="0 12.899999618530273 574.0499877929688 246.39999389648438" data-asc="1.036" width="574.0499877929688" height="246.39999389648438"><defs/><g fill="#0080ff"><g transform="translate(0, 0)"><path d="M0 51.80L0 43.60L2.50 43.60L2.50 21.10L0 21.10L0 12.90L19 12.90L19 21.10L16.50 21.10L16.50 43.60L19 43.60L19 51.80L0 51.80ZM49.80 12.90L66.20 12.90L66.20 21.10L63.70 21.10L63.70 51.80L49.65 51.80L35 29.25L35 43.60L37.40 43.60L37.40 51.80L21 51.80L21 43.60L23.50 43.60L23.50 21.10L21 21.10L21 12.90L39.05 12.90L52.20 32.95L52.20 21.10L49.80 21.10L49.80 12.90ZM105.40 25.00L96.80 25.00L96.80 21.10L93.60 21.10L93.60 43.60L97.10 43.60L97.10 51.80L76.10 51.80L76.10 43.60L79.60 43.60L79.60 21.10L76.40 21.10L76.40 25.00L67.80 25.00L67.80 12.90L105.40 12.90L105.40 25.00ZM107.10 51.80L107.10 43.60L109.60 43.60L109.60 21.10L107.10 21.10L107.10 12.90L140.85 12.90L140.85 28.00L129.65 28.00L129.65 21.10L123.60 21.10L123.60 29.00L128 29.00L128 34.70L123.60 34.70L123.60 43.60L129.65 43.60L129.65 35.70L140.85 35.70L140.85 51.80L107.10 51.80ZM142.75 43.60L145.25 43.60L145.25 21.10L142.75 21.10L142.75 12.90L165.70 12.90Q172.15 12.90 175.55 15.55Q178.95 18.20 178.95 24.15Q178.95 27.50 177.60 29.95Q176.25 32.40 173.75 33.35L173.80 33.85Q178.60 34.60 178.60 39.75L178.60 43.60L180.95 43.60L180.95 51.80L165.10 51.80L165.10 40.05Q165.10 38.10 164.53 37.10Q163.95 36.10 162.72 35.75Q161.50 35.40 159.25 35.40L159.25 43.60L162.55 43.60L162.55 51.80L142.75 51.80L142.75 43.60M161.95 29.30Q163.40 29.30 164.13 28.53Q164.85 27.75 164.85 26.10L164.85 24.30Q164.85 22.65 164.13 21.88Q163.40 21.10 161.95 21.10L159.25 21.10L159.25 29.30L161.95 29.30ZM211.55 12.90L227.95 12.90L227.95 21.10L225.45 21.10L225.45 51.80L211.40 51.80L196.75 29.25L196.75 43.60L199.15 43.60L199.15 51.80L182.75 51.80L182.75 43.60L185.25 43.60L185.25 21.10L182.75 21.10L182.75 12.90L200.80 12.90L213.95 32.95L213.95 21.10L211.55 21.10L211.55 12.90ZM229.85 51.80L229.85 43.60L232.35 43.60L232.35 21.10L229.85 21.10L229.85 12.90L263.60 12.90L263.60 28.00L252.40 28.00L252.40 21.10L246.35 21.10L246.35 29.00L250.75 29.00L250.75 34.70L246.35 34.70L246.35 43.60L252.40 43.60L252.40 35.70L263.60 35.70L263.60 51.80L229.85 51.80ZM302.80 25.00L294.20 25.00L294.20 21.10L291 21.10L291 43.60L294.50 43.60L294.50 51.80L273.50 51.80L273.50 43.60L277 43.60L277 21.10L273.80 21.10L273.80 25.00L265.20 25.00L265.20 12.90L302.80 12.90L302.80 25.00ZM340.70 43.60L342.80 43.60L342.80 51.80L323.90 51.80L323.90 43.60L325.95 43.60L323.05 39.50L322.55 39.50L319.65 43.60L321.70 43.60L321.70 51.80L304.20 51.80L304.20 43.60L306.80 43.60L316.40 32.80L306.40 21.10L304.30 21.10L304.30 12.90L323.05 12.90L323.05 21.10L321.15 21.10L323.90 25.20L324.40 25.20L327.15 21.10L325.25 21.10L325.25 12.90L342.60 12.90L342.60 21.10L340 21.10L330.55 31.75L340.70 43.60Z"/></g><g transform="translate(0, 66.65)"><path d=""/></g><g transform="translate(0, 133.3)"><path d="M37.10 43.60L39.10 43.60L39.10 51.80L19.50 51.80L19.50 43.60L22.50 43.60L21.70 39.60L14.90 39.60L14.10 43.60L17.10 43.60L17.10 51.80L0 51.80L0 43.60L2 43.60L10.45 12.90L28.65 12.90L37.10 43.60M16 34.30L20.60 34.30L18.55 24.35L18.05 24.35L16 34.30ZM40.60 51.85L40.60 43.60L42.80 43.60L42.80 21.10L40.60 21.10L40.60 12.90L54.30 12.90L54.30 43.60L56.50 43.60L56.50 51.85L40.60 51.85ZM58.10 51.85L58.10 43.60L60.30 43.60L60.30 21.10L58.10 21.10L58.10 12.90L71.80 12.90L71.80 43.60L74 43.60L74 51.85L58.10 51.85ZM90.60 43.60L92.80 43.60L92.80 32.20L90.60 32.20L90.60 24.00L92.90 24.00Q92.90 17.90 95.88 15.05Q98.85 12.20 104.55 12.20Q107.30 12.20 109.48 12.60Q111.65 13 112.65 13.50L112.65 21.35Q110 21.10 107.75 21.10Q105.80 21.10 105.05 21.75Q104.30 22.40 104.30 24.00L108.20 24.00L108.20 32.20L104.30 32.20L104.30 43.60L108.20 43.60L108.20 51.80L90.60 51.80L90.60 43.60ZM124.70 52.50Q117.60 52.50 113.60 48.78Q109.60 45.05 109.60 37.90Q109.60 30.75 113.60 27.03Q117.60 23.30 124.70 23.30Q131.90 23.30 135.85 27.08Q139.80 30.85 139.80 37.90Q139.80 45.05 135.80 48.78Q131.80 52.50 124.70 52.50M124.70 43.60Q126.15 43.60 126.88 42.83Q127.60 42.05 127.60 40.40L127.60 35.40Q127.60 33.75 126.88 32.98Q126.15 32.20 124.70 32.20Q123.25 32.20 122.53 32.98Q121.80 33.75 121.80 35.40L121.80 40.40Q121.80 42.05 122.53 42.83Q123.25 43.60 124.70 43.60ZM162.75 23.30Q163.75 23.30 164.65 23.50Q165.55 23.70 166.15 24.00L166.15 33.55Q164.10 32.70 161.75 32.70Q158.60 32.70 156.90 34.35Q155.20 36 155.20 39.25L155.20 43.60L159.70 43.60L159.70 51.80L141.50 51.80L141.50 43.60L143.70 43.60L143.70 32.20L141.50 32.20L141.50 24.00L155.20 24.00L155.20 27.65Q156.60 25.55 158.40 24.43Q160.20 23.30 162.75 23.30ZM195.10 52.50Q189.80 52.50 187.13 49.93Q184.45 47.35 184.45 41.25L184.45 32.20L182.25 32.20L182.25 24.00Q184.15 24.00 185.10 23.03Q186.05 22.05 186.05 20.35L186.05 18.10L196.65 18.10L196.65 24.00L203.40 24.00L203.40 32.20L196.65 32.20L196.65 40.40Q196.65 42.05 197.38 42.83Q198.10 43.60 199.55 43.60Q201.45 43.60 203.70 43.15L203.70 51.00Q202.30 51.55 199.92 52.03Q197.55 52.50 195.10 52.50ZM238.50 43.60L238.50 51.80L222.70 51.80L222.70 43.60L224.80 43.60L224.80 35.40Q224.80 33.75 224.10 32.98Q223.40 32.20 222 32.20Q219 32.20 219 35.40L219 43.60L221.10 43.60L221.10 51.80L205.30 51.80L205.30 43.60L207.50 43.60L207.50 21.10L205.30 21.10L205.30 12.90L219 12.90L219 27.90Q220.85 25.60 223 24.45Q225.15 23.30 228 23.30Q232.15 23.30 234.23 25.90Q236.30 28.50 236.30 33.05L236.30 43.60L238.50 43.60ZM255.00 52.50Q247.90 52.50 243.90 48.78Q239.90 45.05 239.90 37.90Q239.90 30.75 243.90 27.03Q247.90 23.30 255.00 23.30Q262.05 23.30 265.18 26.98Q268.30 30.65 268.30 36.10L268.30 39.70L252.10 39.70L252.10 40Q252.10 41.85 253.20 42.73Q254.30 43.60 256.85 43.60Q259.90 43.60 262.65 43.15Q265.40 42.70 267.45 42L267.45 50.00Q265.70 50.95 262.33 51.73Q258.95 52.50 255.00 52.50M257.90 34.20L257.90 33.60Q257.90 31.90 257.18 31.15Q256.45 30.40 255.00 30.40Q253.55 30.40 252.83 31.18Q252.10 31.95 252.10 33.60L252.10 34.20L257.90 34.20ZM293.10 51.80L286.50 32.20L284.40 32.20L284.40 24.00L299.85 24.00L299.85 32.20L297.75 32.20L299.55 40L300.05 40L303.70 24.00L312.90 24.00L316.55 40L317.05 40L318.80 32.20L316.70 32.20L316.70 24.00L331.20 24.00L331.20 32.20L329.10 32.20L322.75 51.80L310.60 51.80L307.85 37.90L307.35 37.90L304.60 51.80L293.10 51.80ZM347.50 52.50Q340.40 52.50 336.40 48.78Q332.40 45.05 332.40 37.90Q332.40 30.75 336.40 27.03Q340.40 23.30 347.50 23.30Q354.55 23.30 357.68 26.98Q360.80 30.65 360.80 36.10L360.80 39.70L344.60 39.70L344.60 40Q344.60 41.85 345.70 42.73Q346.80 43.60 349.35 43.60Q352.40 43.60 355.15 43.15Q357.90 42.70 359.95 42L359.95 50.00Q358.20 50.95 354.83 51.73Q351.45 52.50 347.50 52.50M350.40 34.20L350.40 33.60Q350.40 31.90 349.68 31.15Q348.95 30.40 347.50 30.40Q346.05 30.40 345.33 31.18Q344.60 31.95 344.60 33.60L344.60 34.20L350.40 34.20ZM383.75 52.50Q381.20 52.50 379.23 51.25Q377.25 50.00 376.00 48.40L376.00 51.80L362.30 51.80L362.30 43.60L364.50 43.60L364.50 21.10L362.30 21.10L362.30 12.90L376.00 12.90L376.00 27.40Q377.25 25.80 379.23 24.55Q381.20 23.30 383.75 23.30Q388.85 23.30 391.43 27.10Q394.00 30.90 394.00 37.90Q394.00 44.90 391.43 48.70Q388.85 52.50 383.75 52.50M378.90 43.60Q380.35 43.60 381.08 42.83Q381.80 42.05 381.80 40.40L381.80 35.40Q381.80 33.75 381.08 32.98Q380.35 32.20 378.90 32.20Q377.45 32.20 376.73 32.98Q376.00 33.75 376.00 35.40L376.00 40.40Q376.00 42.05 376.73 42.83Q377.45 43.60 378.90 43.60ZM397.80 40.85L395.50 15.40L395.50 12.90L410.45 12.90L410.45 15.40L408.10 40.85L397.80 40.85M397.30 51.80L397.30 43.60L408.60 43.60L408.60 51.80L397.30 51.80ZM428.45 35.55L428.45 27.35L436.25 27.35L436.25 35.55L428.45 35.55M428.45 51.80L428.45 43.60L436.25 43.60L436.25 51.80L428.45 51.80ZM439.15 60.90Q442.65 55.80 444.45 49.35Q446.25 42.90 446.25 35.40Q446.25 27.90 444.45 21.45Q442.65 15 439.15 9.90L444.60 7.40Q449.45 11.75 452.50 19.20Q455.55 26.65 455.55 35.40Q455.55 44.15 452.50 51.60Q449.45 59.05 444.60 63.40L439.15 60.90Z"/></g><g transform="translate(0, 199.95000000000002)"><path d="M21.40 12.90L38.10 12.90L38.10 21.10L36.10 21.10L27.15 51.80L10.95 51.80L2 21.10L0 21.10L0 12.90L19.20 12.90L19.20 21.10L16.60 21.10L20.05 37.85L20.55 37.85L24 21.10L21.40 21.10L21.40 12.90ZM51 52.50Q43.90 52.50 39.90 48.78Q35.90 45.05 35.90 37.90Q35.90 30.75 39.90 27.03Q43.90 23.30 51 23.30Q58.05 23.30 61.18 26.98Q64.30 30.65 64.30 36.10L64.30 39.70L48.10 39.70L48.10 40Q48.10 41.85 49.20 42.73Q50.30 43.60 52.85 43.60Q55.90 43.60 58.65 43.15Q61.40 42.70 63.45 42L63.45 50.00Q61.70 50.95 58.33 51.73Q54.95 52.50 51 52.50M53.90 34.20L53.90 33.60Q53.90 31.90 53.18 31.15Q52.45 30.40 51 30.40Q49.55 30.40 48.83 31.18Q48.10 31.95 48.10 33.60L48.10 34.20L53.90 34.20ZM87.15 23.30Q88.15 23.30 89.05 23.50Q89.95 23.70 90.55 24.00L90.55 33.55Q88.50 32.70 86.15 32.70Q83 32.70 81.30 34.35Q79.60 36 79.60 39.25L79.60 43.60L84.10 43.60L84.10 51.80L65.90 51.80L65.90 43.60L68.10 43.60L68.10 32.20L65.90 32.20L65.90 24.00L79.60 24.00L79.60 27.65Q81 25.55 82.80 24.43Q84.60 23.30 87.15 23.30ZM104.30 52.50Q98 52.50 92.15 50.50L92.15 43.10L100.25 43.10L100.25 43.60Q100.25 46 103.30 46Q106 46 106 44.15Q106 43.15 105.22 42.65Q104.45 42.15 102.50 41.80L100 41.35Q92.15 39.95 92.15 32.45Q92.15 28.10 95.45 25.70Q98.75 23.30 104.35 23.30Q110.60 23.30 114.90 25.40L114.90 32.35L107.30 32.35L107.30 31.85Q107.30 30.85 106.63 30.33Q105.95 29.80 104.65 29.80Q102.15 29.80 102.15 31.40Q102.15 32.25 102.85 32.70Q103.55 33.15 105.40 33.55L108.25 34.10Q112.70 34.95 114.60 37.25Q116.50 39.55 116.50 43.15Q116.50 47.70 113.33 50.10Q110.15 52.50 104.30 52.50ZM120.50 21.25L120.50 12.90L130.70 12.90L130.70 21.25L120.50 21.25M118.10 51.80L118.10 43.60L120.30 43.60L120.30 32.20L118.10 32.20L118.10 24.00L131.80 24.00L131.80 43.60L134 43.60L134 51.80L118.10 51.80ZM150.30 52.50Q143.20 52.50 139.20 48.78Q135.20 45.05 135.20 37.90Q135.20 30.75 139.20 27.03Q143.20 23.30 150.30 23.30Q157.50 23.30 161.45 27.08Q165.40 30.85 165.40 37.90Q165.40 45.05 161.40 48.78Q157.40 52.50 150.30 52.50M150.30 43.60Q151.75 43.60 152.47 42.83Q153.20 42.05 153.20 40.40L153.20 35.40Q153.20 33.75 152.47 32.98Q151.75 32.20 150.30 32.20Q148.85 32.20 148.13 32.98Q147.40 33.75 147.40 35.40L147.40 40.40Q147.40 42.05 148.13 42.83Q148.85 43.60 150.30 43.60ZM200.20 43.60L200.20 51.80L184.40 51.80L184.40 43.60L186.50 43.60L186.50 35.40Q186.50 33.75 185.80 32.98Q185.10 32.20 183.70 32.20Q180.70 32.20 180.70 35.40L180.70 43.60L182.80 43.60L182.80 51.80L167 51.80L167 43.60L169.20 43.60L169.20 32.20L167 32.20L167 24.00L180.70 24.00L180.70 27.90Q184.30 23.30 189.70 23.30Q193.85 23.30 195.93 25.90Q198 28.50 198 33.05L198 43.60L200.20 43.60ZM202.90 35.55L202.90 27.35L210.70 27.35L210.70 35.55L202.90 35.55M202.90 51.80L202.90 43.60L210.70 43.60L210.70 51.80L202.90 51.80ZM237 51.80L230.70 32.20L228.60 32.20L228.60 24.00L244.05 24.00L244.05 32.20L241.95 32.20L244.60 42.10L245.10 42.10L247.75 32.20L245.65 32.20L245.65 24.00L260.15 24.00L260.15 32.20L258.05 32.20L251.90 51.80L237 51.80ZM259.65 59.35L259.65 57.75L275.70 9.70L282.80 9.70L282.80 11.30L266.80 59.35L259.65 59.35ZM297.60 52.50Q290.50 52.50 286.50 48.78Q282.50 45.05 282.50 37.90Q282.50 30.75 286.50 27.03Q290.50 23.30 297.60 23.30Q304.80 23.30 308.75 27.08Q312.70 30.85 312.70 37.90Q312.70 45.05 308.70 48.78Q304.70 52.50 297.60 52.50M297.60 43.60Q299.05 43.60 299.77 42.83Q300.50 42.05 300.50 40.40L300.50 35.40Q300.50 33.75 299.77 32.98Q299.05 32.20 297.60 32.20Q296.15 32.20 295.42 32.98Q294.70 33.75 294.70 35.40L294.70 40.40Q294.70 42.05 295.42 42.83Q296.15 43.60 297.60 43.60ZM347.50 43.60L347.50 51.80L331.70 51.80L331.70 43.60L333.80 43.60L333.80 35.40Q333.80 33.75 333.10 32.98Q332.40 32.20 331 32.20Q328 32.20 328 35.40L328 43.60L330.10 43.60L330.10 51.80L314.30 51.80L314.30 43.60L316.50 43.60L316.50 32.20L314.30 32.20L314.30 24.00L328 24.00L328 27.90Q331.60 23.30 337 23.30Q341.15 23.30 343.22 25.90Q345.30 28.50 345.30 33.05L345.30 43.60L347.50 43.60ZM358.95 52.50Q353.85 52.50 351.27 48.70Q348.70 44.90 348.70 37.90Q348.70 30.90 351.27 27.10Q353.85 23.30 358.95 23.30Q361.50 23.30 363.47 24.55Q365.45 25.80 366.70 27.40L366.70 21.10L363.75 21.10L363.75 12.90L378.20 12.90L378.20 43.60L380.40 43.60L380.40 51.80L366.70 51.80L366.70 48.40Q365.45 50.00 363.47 51.25Q361.50 52.50 358.95 52.50M363.80 43.60Q365.25 43.60 365.97 42.83Q366.70 42.05 366.70 40.40L366.70 35.40Q366.70 33.75 365.97 32.98Q365.25 32.20 363.80 32.20Q362.35 32.20 361.63 32.98Q360.90 33.75 360.90 35.40L360.90 40.40Q360.90 42.05 361.63 42.83Q362.35 43.60 363.80 43.60ZM396.90 52.50Q389.80 52.50 385.80 48.78Q381.80 45.05 381.80 37.90Q381.80 30.75 385.80 27.03Q389.80 23.30 396.90 23.30Q403.95 23.30 407.07 26.98Q410.20 30.65 410.20 36.10L410.20 39.70L394.00 39.70L394.00 40Q394.00 41.85 395.10 42.73Q396.20 43.60 398.75 43.60Q401.80 43.60 404.55 43.15Q407.30 42.70 409.35 42L409.35 50.00Q407.60 50.95 404.22 51.73Q400.85 52.50 396.90 52.50M399.80 34.20L399.80 33.60Q399.80 31.90 399.07 31.15Q398.35 30.40 396.90 30.40Q395.45 30.40 394.72 31.18Q394.00 31.95 394.00 33.60L394.00 34.20L399.80 34.20ZM419.70 51.80L413.40 32.20L411.30 32.20L411.30 24.00L426.75 24.00L426.75 32.20L424.65 32.20L427.30 42.10L427.80 42.10L430.45 32.20L428.35 32.20L428.35 24.00L442.85 24.00L442.85 32.20L440.75 32.20L434.60 51.80L419.70 51.80ZM440.85 51.80L440.85 43.60L448.65 43.60L448.65 51.80L440.85 51.80ZM453.25 51.80L453.25 43.60L458.05 43.60L458.05 21.10L451.75 21.10L451.75 15.45L462.85 12.90L471.25 12.90L471.25 43.60L475.45 43.60L475.45 51.80L453.25 51.80ZM479.15 51.80L479.15 43.60L486.95 43.60L486.95 51.80L479.15 51.80ZM507.65 52.50Q499.20 52.50 494.62 47.70Q490.05 42.90 490.05 32.35Q490.05 21.80 494.62 17Q499.20 12.20 507.65 12.20Q516.10 12.20 520.67 17Q525.25 21.80 525.25 32.35Q525.25 42.10 521.02 47.30Q516.80 52.50 507.65 52.50M507.65 43.60Q511.05 43.60 511.05 39.90L511.05 24.80Q511.05 21.10 507.65 21.10Q504.25 21.10 504.25 24.80L504.25 39.90Q504.25 43.60 507.65 43.60ZM527.95 51.80L527.95 43.60L535.75 43.60L535.75 51.80L527.95 51.80ZM556.45 52.50Q548 52.50 543.42 47.70Q538.85 42.90 538.85 32.35Q538.85 21.80 543.42 17Q548 12.20 556.45 12.20Q564.90 12.20 569.48 17Q574.05 21.80 574.05 32.35Q574.05 42.10 569.82 47.30Q565.60 52.50 556.45 52.50M556.45 43.60Q559.85 43.60 559.85 39.90L559.85 24.80Q559.85 21.10 556.45 21.10Q553.05 21.10 553.05 24.80L553.05 39.90Q553.05 43.60 556.45 43.60Z"/></g><g transform="translate(0, 266.6)"><path d=""/></g></g></svg>
